<?xml version="1.0" encoding="utf-8"?>
<!-- Generator: Adobe Illustrator 25.0.0, SVG Export Plug-In . SVG Version: 6.00 Build 0)  -->
<svg version="1.1" id="Layer_1" xmlns="http://www.w3.org/2000/svg" xmlns:xlink="http://www.w3.org/1999/xlink" x="0px" y="0px"
	 viewBox="0 0 269 56" style="enable-background:new 0 0 269 56;" xml:space="preserve">
<style type="text/css">
	.st0{fill:none;stroke:#000000;stroke-width:2;stroke-miterlimit:5.5299;}
	.st1{fill:#144C01;}
	.st2{fill:#FF6529;stroke:#000000;stroke-width:0.5;stroke-miterlimit:5.5299;}
	.st3{fill:#FFFFFF;}
	.st4{fill:#E2E2E2;}
</style>
<sodipodi:namedview  bordercolor="#666666" borderopacity="1.0" id="base" pagecolor="#ffffff" showgrid="false">
	</sodipodi:namedview>
<path id="rect3781" class="st0" d="M218.3,2.3h43c1.7,0,3.1,1.4,3.1,3.1v45.2c0,1.7-1.4,3.1-3.1,3.1h-43c-1.7,0-3.1-1.4-3.1-3.1V5.4
	C215.2,3.7,216.6,2.3,218.3,2.3z"/>
<path id="rect3774" class="st1" d="M239.5,50.5h-4.6V5.2h4.6l0,40.4c0.9,2.2,2.5,0.8,2.5,0c0-3,0-11.4,0-11.4h4.4
	c0,0,0.1,7.2,0.1,11.5c0.8,1.9,2.5,0.9,2.5,0c0-3,0-11.5,0-11.5h4.3c0,3.6-0.1,8.1,0,11.4c0.9,2.4,2.6,0.9,2.6,0c0-3,0-11.4,0-11.4
	h4.5c0,0,0.1,11.4,0,14.2c-0.1,2.7-5.4,3.9-7.2-0.2c-0.1,3.1-5.4,3.7-6.8,0.1c-0.2,2.6-5.3,4-7,0L239.5,50.5z"/>
<rect id="rect3785" x="242.9" y="5.3" class="st2" width="18.3" height="26.8"/>
<path id="path3797" class="st1" d="M227.6,5.2l0,2.2c0,0-2.2-1.6-3.4-1.9c-4.7-1.3-4.4,2.9-4.4,2.9v6.4v6.4c0,0-0.3,4.3,4.4,2.9
	c1.3-0.4,3.4-1.8,3.4-1.8l0,5H219v5.1h7.2c1,0,1.4,0.3,1.4,1.6v2.3c-1.7-2.5-7.6-5.4-7.9,0.6v11.5h4.8c0,0,0-8.4,0-10.6
	c0-1.3,3-1.1,3,1.2v11.5h5.4V33.6h-3.2c2.5-1.8,5-3.7,0.9-6.2l2,0V5.2L227.6,5.2L227.6,5.2z M226.1,9.3c0.9,0,1.6,0.7,1.5,1.3
	c0,2.8,0,5.7,0,8.5c0,0.6-0.7,1.3-1.5,1.3c-0.9,0-1.6-0.7-1.6-1.6v-8C224.5,10,225.2,9.3,226.1,9.3L226.1,9.3z"/>
<g>
	<g>
		<path class="st3" d="M105.3,17.3L90.9,36.2h14.9v5.3H83.1v-4.9l14.4-18.9h-14v-5.3h21.8V17.3z"/>
		<path class="st3" d="M111.7,40.1c-1.3-1.1-2-2.7-2-4.8c0-2.1,0.7-3.6,2.2-4.6c1.5-1,3.7-1.5,6.7-1.5h6.3l0.3,4.2h-6.6
			c-1,0-1.7,0.2-2.2,0.5c-0.5,0.3-0.7,0.8-0.7,1.5c0,0.7,0.3,1.2,0.9,1.5c0.6,0.3,1.6,0.5,2.8,0.5c1.8,0,3.1-0.2,3.9-0.5
			c0.9-0.3,1.3-0.9,1.3-1.6l0.5,3c-0.1,0.7-0.5,1.4-1.2,1.9s-1.6,0.9-2.7,1.2c-1.1,0.3-2.3,0.4-3.5,0.4
			C115,41.7,113,41.2,111.7,40.1z M124.6,28.3c0-1-0.4-1.7-1.2-2.2s-1.9-0.8-3.3-0.8c-0.9,0-1.9,0.1-2.8,0.4
			c-0.9,0.3-1.7,0.6-2.4,1.1l-4.1-3.3c1-0.9,2.3-1.7,3.9-2.2c1.6-0.5,3.4-0.8,5.4-0.8c2.2,0,4,0.3,5.6,0.9c1.5,0.6,2.7,1.5,3.5,2.6
			c0.8,1.2,1.2,2.5,1.2,4.2v13.4h-6V28.3z"/>
		<path class="st3" d="M137.1,12.3h6.6v29.1h-6.6V12.3z M151.5,28.8c0-1-0.3-1.8-1-2.4c-0.7-0.6-1.7-0.8-3-0.8
			c-1.2,0-2.2,0.3-2.8,0.9c-0.7,0.6-1,1.4-1,2.4l-0.5-4.6c0.8-1.3,1.7-2.3,2.7-2.9c1.1-0.7,2.4-1,4-1c2.6,0,4.7,0.7,6.1,2.2
			c1.4,1.5,2.2,3.6,2.2,6.3v12.6h-6.6V28.8z"/>
		<path class="st3" d="M164.3,12.3h6.6v5.5h-6.6V12.3z M164.3,20.7h6.6v20.8h-6.6V20.7z"/>
		<path class="st3" d="M177,20.7h6.6v20.8H177V20.7z M191.4,28.8c0-1-0.3-1.8-1-2.4c-0.7-0.6-1.7-0.8-3-0.8c-1.2,0-2.2,0.3-2.8,0.9
			s-1,1.4-1,2.4l-0.5-4.6c0.8-1.3,1.7-2.3,2.7-2.9c1-0.7,2.4-1,4-1c2.6,0,4.7,0.7,6.1,2.2s2.2,3.6,2.2,6.3v12.6h-6.6V28.8z"/>
	</g>
</g>
<g>
	<g>
		<path class="st4" d="M8.8,41.2c-0.4-0.8-0.5-1.6-0.5-2.6s0.2-1.8,0.5-2.6c0.4-0.8,0.9-1.5,1.7-2.1l0.9,1c-0.5,0.5-0.9,1.1-1.2,1.7
			c-0.3,0.6-0.4,1.3-0.4,2c0,0.7,0.1,1.4,0.4,2s0.7,1.2,1.2,1.7l-0.9,1C9.7,42.6,9.1,41.9,8.8,41.2z"/>
		<path class="st4" d="M12.3,34.6h1.6v7.1h-1.6V34.6z M13.1,40.4h2c0.5,0,0.9-0.1,1.2-0.3c0.3-0.2,0.4-0.5,0.4-0.9v-2.1
			c0-0.4-0.1-0.7-0.4-0.9c-0.3-0.2-0.7-0.3-1.2-0.3h-2v-1.3h2c0.7,0,1.3,0.1,1.8,0.3c0.5,0.2,0.9,0.5,1.1,0.9
			c0.3,0.4,0.4,0.8,0.4,1.4v2c0,0.5-0.1,1-0.4,1.3s-0.6,0.7-1.1,0.9c-0.5,0.2-1.1,0.3-1.9,0.3h-2V40.4z"/>
		<path class="st4" d="M21.1,41.6c-0.4-0.2-0.7-0.4-0.9-0.8c-0.2-0.3-0.3-0.7-0.3-1.2v-0.8c0-0.5,0.1-0.9,0.3-1.2
			c0.2-0.3,0.5-0.6,0.9-0.7c0.4-0.2,0.9-0.3,1.4-0.3s1,0.1,1.4,0.3c0.4,0.2,0.7,0.4,0.9,0.7c0.2,0.3,0.3,0.7,0.3,1.2v0.8
			c0,0.5-0.1,0.9-0.3,1.2c-0.2,0.3-0.5,0.6-0.9,0.8c-0.4,0.2-0.9,0.3-1.4,0.3S21.5,41.7,21.1,41.6z M23.3,40.3
			c0.2-0.2,0.3-0.4,0.3-0.7v-0.8c0-0.3-0.1-0.5-0.3-0.7c-0.2-0.2-0.4-0.2-0.8-0.2c-0.3,0-0.6,0.1-0.7,0.2s-0.3,0.4-0.3,0.7v0.8
			c0,0.3,0.1,0.5,0.3,0.7c0.2,0.2,0.4,0.2,0.8,0.2S23.1,40.4,23.3,40.3z"/>
		<path class="st4" d="M26.6,34.6h1.6v7.1h-1.6V34.6z M27.4,39.9l2.8-3.2h1.7l-4.3,4.7L27.4,39.9z M28.8,39.1l1.3-0.7l2.1,3.3h-1.9
			L28.8,39.1z"/>
		<path class="st4" d="M33,34.6h1.6v7.1H33V34.6z M33.7,39.9l2.8-3.2h1.7l-4.3,4.7L33.7,39.9z M35.2,39.1l1.3-0.7l2.1,3.3h-1.9
			L35.2,39.1z"/>
		<path class="st4" d="M39.5,41.4c-0.3-0.3-0.5-0.7-0.5-1.2c0-0.5,0.2-0.9,0.5-1.1c0.4-0.3,0.9-0.4,1.6-0.4h1.5l0.1,1h-1.6
			c-0.2,0-0.4,0-0.5,0.1c-0.1,0.1-0.2,0.2-0.2,0.4c0,0.2,0.1,0.3,0.2,0.4c0.2,0.1,0.4,0.1,0.7,0.1c0.4,0,0.8,0,1-0.1
			c0.2-0.1,0.3-0.2,0.3-0.4l0.1,0.7c0,0.2-0.1,0.3-0.3,0.5c-0.2,0.1-0.4,0.2-0.7,0.3s-0.6,0.1-0.8,0.1
			C40.3,41.8,39.8,41.7,39.5,41.4z M42.7,38.5c0-0.2-0.1-0.4-0.3-0.5c-0.2-0.1-0.5-0.2-0.8-0.2c-0.2,0-0.5,0-0.7,0.1
			c-0.2,0.1-0.4,0.1-0.6,0.3l-1-0.8c0.2-0.2,0.6-0.4,1-0.5c0.4-0.1,0.8-0.2,1.3-0.2c0.5,0,1,0.1,1.4,0.2c0.4,0.1,0.7,0.4,0.9,0.6
			c0.2,0.3,0.3,0.6,0.3,1v3.3h-1.5V38.5z"/>
		<path class="st4" d="M45.7,36.7h1.6v5.1h-1.6V36.7z M49.2,38.7c0-0.2-0.1-0.4-0.3-0.6s-0.4-0.2-0.7-0.2c-0.3,0-0.5,0.1-0.7,0.2
			c-0.2,0.1-0.2,0.3-0.2,0.6l-0.1-1.1c0.2-0.3,0.4-0.6,0.7-0.7c0.3-0.2,0.6-0.2,1-0.2c0.6,0,1.1,0.2,1.5,0.5
			c0.4,0.4,0.5,0.9,0.5,1.5v3.1h-1.6V38.7z"/>
		<path class="st4" d="M59.1,36.7h1.6l-2.3,5.1h-1.1L55,36.7h1.6l1.3,3.2L59.1,36.7z"/>
		<path class="st4" d="M62.6,41.6c-0.4-0.2-0.7-0.4-1-0.7c-0.2-0.3-0.4-0.7-0.4-1.1h1.7c0,0.1,0.1,0.3,0.2,0.4s0.2,0.2,0.3,0.2
			c0.1,0.1,0.3,0.1,0.4,0.1c0.3,0,0.5-0.1,0.7-0.2c0.2-0.1,0.2-0.3,0.2-0.6v-0.2c0-0.3-0.1-0.5-0.2-0.6c-0.1-0.1-0.3-0.2-0.6-0.2
			h-0.7v-1.3H64c0.2,0,0.4-0.1,0.5-0.2c0.1-0.1,0.2-0.3,0.2-0.5v-0.1c0-0.2-0.1-0.4-0.2-0.5c-0.1-0.1-0.3-0.2-0.5-0.2
			c-0.1,0-0.3,0-0.4,0.1c-0.1,0.1-0.2,0.2-0.3,0.3c-0.1,0.1-0.1,0.3-0.2,0.4h-1.7c0-0.4,0.2-0.8,0.4-1.1c0.2-0.3,0.5-0.6,0.9-0.7
			c0.4-0.2,0.8-0.2,1.3-0.2c0.8,0,1.3,0.2,1.8,0.5c0.4,0.3,0.6,0.8,0.6,1.4v0.2c0,0.3-0.1,0.6-0.3,0.9s-0.5,0.4-0.9,0.5
			c0.4,0.1,0.7,0.3,1,0.5c0.2,0.3,0.3,0.6,0.3,1.1v0.2c0,0.4-0.1,0.8-0.3,1.1c-0.2,0.3-0.5,0.5-0.9,0.7c-0.4,0.2-0.8,0.2-1.4,0.2
			C63.5,41.8,63,41.7,62.6,41.6z"/>
		<path class="st4" d="M67.2,42.3c0.5-0.5,0.9-1.1,1.2-1.7s0.4-1.3,0.4-2c0-0.7-0.1-1.4-0.4-2c-0.3-0.6-0.7-1.2-1.2-1.7l0.9-1
			c0.7,0.6,1.3,1.3,1.7,2.1c0.4,0.8,0.5,1.6,0.5,2.6s-0.2,1.8-0.5,2.6c-0.4,0.8-0.9,1.5-1.7,2.1L67.2,42.3z"/>
	</g>
</g>
</svg>
