<svg id="Layer_1" data-name="Layer 1" xmlns="http://www.w3.org/2000/svg" viewBox="0 0 269 56"><defs><style>.cls-1{fill:none;stroke-width:2px;}.cls-1,.cls-3{stroke:#000;stroke-miterlimit:5.53;}.cls-2{fill:#144c01;}.cls-3{fill:#ff6529;stroke-width:0.5px;}.cls-4{fill:#fff;}.cls-5{fill:#e2e2e2;}</style></defs><rect id="rect3781" class="cls-1" x="215.2" y="2.3" width="49.21" height="51.42" rx="3.13"/><path id="rect3774" class="cls-2" d="M239.52,50.49H235V5.22h4.57l0,40.41c.93,2.16,2.5.82,2.49,0,0-3,0-11.43,0-11.43h4.37s.07,7.21.12,11.47c.78,1.89,2.49.85,2.48,0,0-3,0-11.47,0-11.47h4.3c0,3.57-.06,8.12,0,11.42.87,2.4,2.64.85,2.63,0,0-3,0-11.41,0-11.41h4.54s.12,11.43,0,14.16-5.36,3.89-7.18-.16c-.12,3.11-5.44,3.66-6.8.08-.17,2.56-5.25,4-6.95,0Z"/><rect id="rect3785" class="cls-3" x="242.87" y="5.3" width="18.32" height="26.82"/><path id="path3797" class="cls-2" d="M227.61,5.25l0,2.19a16,16,0,0,0-3.41-1.93c-4.72-1.34-4.38,2.93-4.38,2.93V21.27s-.34,4.26,4.38,2.92a17,17,0,0,0,3.41-1.84l0,5H219v5.13h7.19c1,0,1.42.34,1.42,1.64V36.4c-1.7-2.47-7.61-5.37-7.89.58V48.45h4.8s0-8.42,0-10.63c0-1.3,3-1.12,3,1.22V50.5H233V33.61h-3.21c2.53-1.82,5-3.65.92-6.2l2,0V5.25Zm-1.51,4a1.47,1.47,0,0,1,1.53,1.31c0,2.77,0,5.74,0,8.48a1.48,1.48,0,0,1-1.53,1.34,1.56,1.56,0,0,1-1.56-1.56v-8a1.56,1.56,0,0,1,1.56-1.56Z"/><path class="cls-4" d="M105.34,17.25,91,36.15h14.87v5.29H83.1V36.51l14.39-18.9h-14V12.33h21.81Z"/><path class="cls-4" d="M111.66,40.14a5.8,5.8,0,0,1-2-4.83,5.22,5.22,0,0,1,2.23-4.62c1.48-1,3.71-1.55,6.67-1.55h6.26l.34,4.19H118.6a4.09,4.09,0,0,0-2.24.49,1.66,1.66,0,0,0-.75,1.49,1.62,1.62,0,0,0,.94,1.51,6.35,6.35,0,0,0,2.84.49,11.42,11.42,0,0,0,3.94-.5,1.67,1.67,0,0,0,1.29-1.56l.5,3a2.74,2.74,0,0,1-1.24,1.9,7.75,7.75,0,0,1-2.74,1.18,15.09,15.09,0,0,1-3.48.39Q113.64,41.74,111.66,40.14Zm13-11.88A2.53,2.53,0,0,0,123.46,26a5.81,5.81,0,0,0-3.27-.78,10.45,10.45,0,0,0-2.77.38A8.81,8.81,0,0,0,115,26.7l-4.09-3.34a10,10,0,0,1,3.94-2.21,17.6,17.6,0,0,1,5.44-.8,15.18,15.18,0,0,1,5.59.92,7.44,7.44,0,0,1,3.52,2.64,7.06,7.06,0,0,1,1.22,4.17V41.44h-6Z"/><path class="cls-4" d="M137.11,12.33h6.59V41.44h-6.59Zm14.44,16.51a2.86,2.86,0,0,0-1.05-2.36,4.65,4.65,0,0,0-3-.84,4.21,4.21,0,0,0-2.83.85,3,3,0,0,0-1,2.39l-.51-4.6a8.17,8.17,0,0,1,2.71-2.94,7.31,7.31,0,0,1,4-1A8.14,8.14,0,0,1,156,22.57a8.53,8.53,0,0,1,2.17,6.25V41.44h-6.59Z"/><path class="cls-4" d="M164.28,12.33h6.59v5.48h-6.59Zm0,8.33h6.59V41.44h-6.59Z"/><path class="cls-4" d="M177,20.66h6.59V41.44H177Zm14.44,8.18a2.86,2.86,0,0,0-1-2.36,4.65,4.65,0,0,0-3-.84,4.23,4.23,0,0,0-2.83.85,3,3,0,0,0-1,2.39l-.5-4.6a8.06,8.06,0,0,1,2.7-2.94,7.31,7.31,0,0,1,4-1,8.18,8.18,0,0,1,6.12,2.22A8.57,8.57,0,0,1,198,28.82V41.44h-6.59Z"/><path class="cls-5" d="M8.76,41.15a6.33,6.33,0,0,1,0-5.16,6.3,6.3,0,0,1,1.65-2.11l.94,1a5.12,5.12,0,0,0,0,7.47l-.94.95A6.2,6.2,0,0,1,8.76,41.15Z"/><path class="cls-5" d="M12.29,34.64H13.9v7.1H12.29Zm.81,5.81h2.05a2,2,0,0,0,1.22-.32,1,1,0,0,0,.44-.9V37.14a1,1,0,0,0-.44-.9,2,2,0,0,0-1.22-.31H13.1V34.64h2a5.24,5.24,0,0,1,1.83.29,2.42,2.42,0,0,1,1.14.87,2.39,2.39,0,0,1,.4,1.38v2a2.39,2.39,0,0,1-.38,1.34,2.42,2.42,0,0,1-1.14.89,4.79,4.79,0,0,1-1.85.32h-2Z"/><path class="cls-5" d="M21.09,41.55a2,2,0,0,1-.9-.75,2.28,2.28,0,0,1-.31-1.2v-.82a2.2,2.2,0,0,1,.31-1.18,2,2,0,0,1,.9-.75,3.57,3.57,0,0,1,1.42-.26,3.62,3.62,0,0,1,1.43.26,2,2,0,0,1,.9.75,2.2,2.2,0,0,1,.3,1.18v.84a2.23,2.23,0,0,1-.3,1.18,2,2,0,0,1-.9.75,3.62,3.62,0,0,1-1.43.26A3.57,3.57,0,0,1,21.09,41.55Zm2.18-1.27a.82.82,0,0,0,.27-.66v-.84a.81.81,0,0,0-.27-.66,1.12,1.12,0,0,0-.76-.24,1.09,1.09,0,0,0-.75.24.81.81,0,0,0-.27.66v.84a.82.82,0,0,0,.27.66,1.06,1.06,0,0,0,.75.24A1.12,1.12,0,0,0,23.27,40.28Z"/><path class="cls-5" d="M26.61,34.64h1.61v7.1H26.61Zm.75,5.27,2.84-3.24h1.71l-4.33,4.71Zm1.45-.79,1.32-.66,2.08,3.28H30.35Z"/><path class="cls-5" d="M33,34.64h1.61v7.1H33Zm.75,5.27,2.84-3.24h1.7l-4.32,4.71Zm1.44-.79,1.33-.66,2.07,3.28H36.7Z"/><path class="cls-5" d="M39.52,41.42A1.4,1.4,0,0,1,39,40.24a1.27,1.27,0,0,1,.55-1.13,2.85,2.85,0,0,1,1.62-.37h1.53l.08,1h-1.6a1,1,0,0,0-.55.12.4.4,0,0,0-.18.36.39.39,0,0,0,.23.37,1.52,1.52,0,0,0,.69.12,2.87,2.87,0,0,0,1-.12c.21-.08.32-.21.32-.38l.12.73a.65.65,0,0,1-.3.47,1.78,1.78,0,0,1-.67.28,3.36,3.36,0,0,1-.85.1A2.29,2.29,0,0,1,39.52,41.42Zm3.16-2.9A.64.64,0,0,0,42.4,38a1.41,1.41,0,0,0-.8-.19,2.65,2.65,0,0,0-.68.09,2.45,2.45,0,0,0-.59.26l-1-.81a2.54,2.54,0,0,1,1-.54,4.31,4.31,0,0,1,1.33-.2,3.65,3.65,0,0,1,1.36.23,1.74,1.74,0,0,1,.86.64,1.71,1.71,0,0,1,.3,1v3.26H42.68Z"/><path class="cls-5" d="M45.72,36.67h1.61v5.07H45.72Zm3.53,2a.71.71,0,0,0-.26-.58,1.1,1.1,0,0,0-.72-.21,1,1,0,0,0-.69.21.7.7,0,0,0-.25.58l-.12-1.12a1.93,1.93,0,0,1,.66-.72,1.8,1.8,0,0,1,1-.24,2,2,0,0,1,1.5.54,2.1,2.1,0,0,1,.52,1.53v3.08h-1.6Z"/><path class="cls-5" d="M59.14,36.67h1.6l-2.29,5.07H57.31L55,36.67h1.6l1.26,3.18Z"/><path class="cls-5" d="M62.62,41.58a2.29,2.29,0,0,1-1-.69,1.79,1.79,0,0,1-.39-1.07h1.66a.8.8,0,0,0,.15.38.79.79,0,0,0,.31.23,1.19,1.19,0,0,0,.44.08,1,1,0,0,0,.7-.21.73.73,0,0,0,.25-.6v-.17a.86.86,0,0,0-.2-.62.73.73,0,0,0-.58-.22h-.72V37.4H64a.6.6,0,0,0,.48-.19.81.81,0,0,0,.16-.54v-.12a.69.69,0,0,0-.18-.51.73.73,0,0,0-.52-.18.77.77,0,0,0-.4.1.83.83,0,0,0-.3.26,1.3,1.3,0,0,0-.18.43H61.41a2.26,2.26,0,0,1,.42-1.12,2.15,2.15,0,0,1,.91-.72A3.22,3.22,0,0,1,64,34.56a2.8,2.8,0,0,1,1.75.48,1.66,1.66,0,0,1,.62,1.37v.21a1.31,1.31,0,0,1-.3.86,1.73,1.73,0,0,1-.85.55,1.53,1.53,0,0,1,1,.54,1.62,1.62,0,0,1,.34,1.07v.21a1.91,1.91,0,0,1-.29,1.06,1.88,1.88,0,0,1-.86.67,3.68,3.68,0,0,1-1.36.23A4,4,0,0,1,62.62,41.58Z"/><path class="cls-5" d="M67.21,42.31a5.1,5.1,0,0,0,1.2-1.69,5.56,5.56,0,0,0,0-4.09,5.1,5.1,0,0,0-1.2-1.69l.94-1A6.17,6.17,0,0,1,69.8,36a6.33,6.33,0,0,1,0,5.16,6.08,6.08,0,0,1-1.65,2.11Z"/></svg>