<?xml version="1.0" encoding="utf-8"?>
<!-- Generator: Adobe Illustrator 25.0.0, SVG Export Plug-In . SVG Version: 6.00 Build 0)  -->
<svg version="1.1" id="Layer_1" xmlns="http://www.w3.org/2000/svg" xmlns:xlink="http://www.w3.org/1999/xlink" x="0px" y="0px"
	 viewBox="0 0 514.1 514.1" style="enable-background:new 0 0 514.1 514.1;" xml:space="preserve">
<style type="text/css">
	.st0{fill:#FFFFFF;stroke:#000000;stroke-width:0.5;stroke-miterlimit:10;}
</style>
<g>
	<path class="st0" d="M358.2,240.2h58.7c6.3,0,10.3-6.9,7.1-12.4L321.7,50.6c-3.2-5.5-11.1-5.5-14.3,0L185.7,261.5
		c-3.2,5.5,0.8,12.4,7.1,12.4h58.7c2.9,0,5.7-1.6,7.1-4.1l48.8-84.5c3.2-5.5,11.1-5.5,14.3,0l29.4,50.9
		C352.6,238.6,355.3,240.2,358.2,240.2z"/>
	<path class="st0" d="M161.5,236.1c-1.5,2.6-4.2,4.1-7.1,4.1h-73v0l75.3-130.5c1.5-2.6,4.2-4.1,7.1-4.1h58.7
		c6.3,0,10.3,6.9,7.1,12.3L161.5,236.1z"/>
	<path class="st0" d="M125.4,273.9H66.7c-2.9,0-5.7,1.6-7.1,4.1L6,370.7c-1.5,2.5-1.5,5.7,0,8.2l53.5,92.8c1.5,2.5,4.2,4.1,7.1,4.1
		h68.2c2.9,0,5.7-1.6,7.1-4.1l29.4-50.9c3.2-5.5-0.8-12.4-7.1-12.4h-58.7c-2.9,0-5.7-1.6-7.1-4.1L83.8,379c-1.5-2.5-1.5-5.7,0-8.2
		l48.8-84.5C135.7,280.7,131.8,273.9,125.4,273.9z"/>
	<path class="st0" d="M307.5,252.6l-29.4,50.9c-1.5,2.5-4.2,4.1-7.1,4.1H163.9c-2.9,0-5.7,1.6-7.1,4.1l-29.4,50.9
		c-3.2,5.5,0.8,12.4,7.1,12.4h243.5c6.3,0,10.3-6.9,7.1-12.4l-63.5-109.9C318.6,247.1,310.6,247.1,307.5,252.6z"/>
	<path class="st0" d="M388.6,273.9h58.7c2.9,0,5.7,1.6,7.1,4.1l53.5,92.8c1.5,2.5,1.5,5.7,0,8.2l-53.5,92.8
		c-1.5,2.5-4.2,4.1-7.1,4.1h-68.2c-2.9,0-5.7-1.6-7.1-4.1l-29.4-50.9c-3.2-5.5,0.8-12.4,7.1-12.4h58.7c2.9,0,5.7-1.6,7.1-4.1
		l14.7-25.4c1.5-2.5,1.5-5.7,0-8.2l-48.8-84.5C378.3,280.7,382.3,273.9,388.6,273.9z"/>
</g>
</svg>
