<svg id="Layer_1" data-name="Layer 1" xmlns="http://www.w3.org/2000/svg" viewBox="0 0 500 500"><defs><style>.cls-1{fill:#fff;}</style></defs><path class="cls-1" d="M71.83,364.15q136.19-77.94,272-156.53,52.68-30.37,105.26-60.93c3.89-2.26,7.23-5.46,11.05-7.88,1.71-1.08,4.11-2,5.91-1.67,1,.22,2.11,3.22,2.11,5L467.94,268c.08,25.77.34,51.55,0,77.33-.24,19-8.67,33.89-25.21,43.49q-83.82,48.6-167.85,96.8c-16.33,9.34-33.14,8.65-49.41-.66l-119-68.65L50.56,381a5.64,5.64,0,0,1,1.22-10.11Z"/><path class="cls-1" d="M446.34,129.73c10.27-5.94,10.22-12.81-.1-18.79q-81-46.9-162.1-93.68C264,5.64,242.88,4.72,222.37,15.6L64.06,106.39c-6.48,3.76-12.87,7.68-19.27,11.58a3.08,3.08,0,0,0,1.33,5.71c23.1,1.84,40.27,17,59.28,27.74,46.94,26.4,93.45,53.54,139.85,80.87,8.47,5,15.17,5,23.46,0Z"/><path class="cls-1" d="M53.19,356.38c-10.61,6-19,.61-19-12.13q0-87.54.16-175.09c0-5.1-.3-10.22,0-15.3.92-14.94,11.66-20.88,24.91-13.63,10.45,5.71,20.65,11.87,31,17.83l0,.05,104.6,60.47v0c12.28,7.1,24.63,14.09,36.82,21.35,8.25,4.91,8.34,8.5.26,13.25Z"/></svg>